<svg width="144" height="220" viewBox="0 0 144 220" fill="none" xmlns="http://www.w3.org/2000/svg">
<path d="M72 42.1L29.1464 66.9072C27.0848 68.102 25.3731 69.8195 24.1834 71.8871C22.9937 73.9548 22.3679 76.2998 22.3687 78.6866V85.4244L72.0142 56.6906L72 42.1Z" fill="white"/>
<path d="M85.0617 64.2451L72.0142 56.6906L72 42.1L87.4202 51.0287V55.8739H84.286L83.6905 58.7559V60.7977L85.0617 64.2451ZM114.836 66.9072L104.007 60.6565V60.7971L101.539 67.0794V73.7566L121.645 85.4165V78.6787C121.645 76.2923 121.018 73.9481 119.826 71.8818C118.635 69.8154 116.922 68.0998 114.86 66.9072H114.836Z" fill="white"/>
<path d="M44.3952 139.867L45.8683 132.965L47.4902 123.769C47.8183 123.514 48.1297 123.239 48.4226 122.944L48.9398 122.332C48.9571 122.317 48.9705 122.298 48.979 122.277C49.4099 121.594 49.0416 119.136 50.405 115.453C51.5847 112.183 53.6693 109.317 56.4148 107.191C58.3972 105.739 70.0328 97.8308 70.0328 97.8308C69.9977 97.6413 69.9977 97.447 70.0328 97.2575C70.1742 96.8501 70.4508 96.5036 70.8164 96.2759C71.0677 96.0917 71.2675 95.8455 71.3962 95.5613C71.4432 95.4828 71.5686 87.3315 71.5999 87.1901C71.6312 87.0488 71.8115 86.9153 71.9917 86.8211L72.0021 71.2645L29.1239 96.0718C27.0623 97.2666 25.3506 98.984 24.1609 101.052C22.9712 103.119 22.3454 105.464 22.3462 107.851V144.186H41.4648V142.27L44.3952 139.867Z" fill="white"/>
<path d="M114.873 96.0734L104.773 90.223V92.948L103.833 99.0261L102.532 101.94V144.18H121.659V107.845C121.658 105.459 121.031 103.114 119.84 101.048C118.649 98.9816 116.936 97.2659 114.873 96.0734Z" fill="white"/>
<path d="M72.023 86.8211C72.1954 86.9153 72.3834 87.0645 72.4148 87.1901C72.4461 87.3158 72.5715 95.4828 72.6107 95.5613C72.7449 95.8421 72.9436 96.087 73.1905 96.2759C73.5569 96.5027 73.8338 96.8495 73.974 97.2575C74.0059 97.4473 74.0059 97.6411 73.974 97.8308C73.974 97.8308 81.1513 102.707 85.1866 105.503V101.938L83.8937 99.0244L82.9535 92.9463V88.1482H86.1738V79.4707L72.0021 71.2645L71.9917 86.8211L72.023 86.8211Z" fill="white"/>
<path d="M101.539 88.1487V67.0794L104.007 60.7971V58.7553L103.42 55.8733H100.285V41.2041L101.398 36.6573V33.9402H98.7419V31.0346L99.6978 27.1082V26.4721H98.7419V22.4357C98.7408 21.5241 98.4847 20.631 98.0027 19.8578C97.5208 19.0847 96.8322 18.4624 96.0152 18.0617V13.7583L94.597 11.4417L94.3619 10.1067C94.5729 10.0048 94.7509 9.84546 94.8756 9.64684C95.0004 9.44822 95.0667 9.2184 95.0671 8.98371C95.0682 8.76459 95.0106 8.54919 94.9003 8.35996C94.7901 8.17074 94.6312 8.01461 94.4403 7.90786L94.213 6.55716C94.3876 6.48189 94.5363 6.35697 94.6408 6.19785C94.7452 6.03873 94.8008 5.8524 94.8007 5.66193C94.7995 5.47277 94.7443 5.28791 94.6415 5.12925C94.5388 4.97058 94.3928 4.84477 94.2209 4.7667L94.072 3.92645C94.5684 3.86327 95.0221 3.61285 95.3407 3.22618C95.6593 2.8395 95.8189 2.34565 95.7869 1.84519C95.755 1.34473 95.5339 0.875287 95.1687 0.532471C94.8035 0.189656 94.3216 -0.000755929 93.8213 2.25553e-06V0.141349C94.1894 0.200241 94.5245 0.388743 94.7665 0.673003C95.0084 0.957263 95.1413 1.31866 95.1413 1.6923C95.1413 2.06594 95.0084 2.42734 94.7665 2.7116C94.5245 2.99586 94.1894 3.18436 93.8213 3.24325V116.246C94.8634 119.482 94.6048 121.681 94.9966 122.309V122.364L95.5216 122.976C95.8128 123.27 96.1216 123.545 96.4461 123.801L98.1386 132.965L99.6117 139.868L102.532 142.323V101.94L103.833 99.0261L104.773 92.948V90.223L104.752 88.1487H101.539Z" fill="white"/>
<path d="M8.15408 213.285C8.15408 215.805 6.634 217.329 4.10315 217.329C1.5723 217.329 0.0287176 215.805 0.0287176 213.285V207.576H1.13351V213.285C1.11285 213.687 1.17405 214.089 1.31337 214.467C1.45269 214.844 1.66722 215.19 1.94392 215.482C2.22061 215.774 2.55369 216.006 2.92287 216.165C3.29205 216.324 3.68963 216.406 4.0914 216.406C4.49317 216.406 4.89074 216.324 5.25993 216.165C5.62911 216.006 5.96218 215.774 6.23888 215.482C6.51558 215.19 6.7301 214.844 6.86942 214.467C7.00875 214.089 7.06994 213.687 7.04928 213.285V207.576H8.15408V213.285Z" fill="#D1D1D1"/>
<path d="M22.578 212.774V217.274H21.5045V213.065C21.5318 212.79 21.4986 212.513 21.4072 212.252C21.3158 211.992 21.1685 211.755 20.9757 211.558C20.7829 211.361 20.5492 211.209 20.2913 211.112C20.0334 211.016 19.7574 210.977 19.483 210.999C17.9786 211.039 17.1323 212.122 17.1323 213.685V217.274H16.0432V213.065C16.0733 212.789 16.0421 212.511 15.9517 212.249C15.8614 211.988 15.7142 211.749 15.5207 211.552C15.3273 211.354 15.0925 211.202 14.8332 211.107C14.574 211.011 14.2968 210.974 14.0217 210.999C13.6834 211.002 13.3493 211.075 13.0411 211.215C12.7329 211.355 12.4573 211.558 12.2322 211.811C12.007 212.064 11.8372 212.361 11.7338 212.684C11.6304 213.007 11.5957 213.348 11.6318 213.685V217.274H10.5662V210.002H11.6318V211.651C11.8611 211.113 12.2528 210.661 12.7517 210.359C13.2507 210.056 13.8319 209.917 14.4134 209.963C15.0042 209.915 15.5925 210.082 16.0713 210.432C16.55 210.782 16.8876 211.293 17.0226 211.871C17.2203 211.277 17.6109 210.766 18.1321 210.42C18.6533 210.074 19.2751 209.913 19.8982 209.963C21.5672 209.931 22.578 211.007 22.578 212.774Z" fill="#D1D1D1"/>
<path d="M25.9163 211.573C26.129 211.061 26.4932 210.627 26.9598 210.329C27.4264 210.031 27.9729 209.884 28.5255 209.908V210.999C28.1979 210.974 27.8686 211.015 27.5575 211.121C27.2464 211.227 26.9601 211.395 26.716 211.616C26.4719 211.836 26.2751 212.104 26.1377 212.403C26.0002 212.702 25.9248 213.026 25.9163 213.355V217.234H24.835V210.002H25.9163V211.573Z" fill="#D1D1D1"/>
<path d="M34.4788 216.151C34.163 216.549 33.7555 216.863 33.2915 217.069C32.8275 217.274 32.3207 217.363 31.8147 217.329C31.5031 217.359 31.1885 217.324 30.8911 217.227C30.5936 217.129 30.3197 216.97 30.0868 216.76C29.8539 216.55 29.6672 216.294 29.5384 216.008C29.4096 215.722 29.3416 215.412 29.3387 215.098C29.3387 213.818 30.3417 213.018 32.0576 213.01H34.4553V212.578C34.4553 211.51 33.7893 210.874 32.5042 210.874C31.6657 210.901 30.857 211.192 30.1928 211.706L29.7383 210.921C30.5927 210.273 31.637 209.928 32.708 209.939C34.5101 209.939 35.4974 210.889 35.5209 212.46V217.282H34.4709L34.4788 216.151ZM34.4788 214.753V213.881H32.2143C30.9998 213.881 30.3573 214.25 30.3573 215.051C30.3573 215.852 31.0077 216.386 32.0341 216.386C32.5636 216.429 33.0919 216.291 33.533 215.994C33.9741 215.698 34.3019 215.26 34.4631 214.753H34.4788Z" fill="#D1D1D1"/>
<path d="M44.4776 212.774V217.274H43.3963V213.065C43.4218 212.788 43.3859 212.508 43.2912 212.246C43.1966 211.985 43.0454 211.747 42.8486 211.551C42.6518 211.354 42.4142 211.204 42.1526 211.11C41.8911 211.016 41.6121 210.981 41.3356 211.007C40.9928 211.001 40.6525 211.068 40.3374 211.203C40.0222 211.339 39.7394 211.54 39.5075 211.793C39.2757 212.046 39.1001 212.346 38.9924 212.672C38.8848 212.998 38.8475 213.344 38.8831 213.685V217.274H37.8175V206.995H38.8988V211.573C39.1389 211.034 39.5401 210.584 40.0469 210.285C40.5537 209.985 41.141 209.85 41.7274 209.9C42.1062 209.871 42.4869 209.926 42.842 210.062C43.197 210.198 43.5177 210.411 43.7807 210.685C44.0437 210.96 44.2427 211.29 44.3632 211.651C44.4837 212.013 44.5228 212.396 44.4776 212.774Z" fill="#D1D1D1"/>
<path d="M55.3525 215.845C54.9839 216.287 54.5273 216.648 54.0119 216.903C53.4966 217.159 52.9337 217.304 52.3593 217.329C51.9948 217.349 51.6299 217.296 51.2864 217.172C50.9429 217.048 50.6277 216.856 50.3595 216.608C50.0913 216.36 49.8756 216.06 49.7251 215.727C49.5747 215.393 49.4926 215.033 49.4837 214.667C49.4837 213.254 50.5493 212.523 51.6776 211.911C51.1026 211.28 50.7526 210.477 50.6825 209.626C50.6887 209.33 50.7558 209.038 50.8796 208.769C51.0033 208.501 51.181 208.26 51.4016 208.063C51.6223 207.867 51.8811 207.718 52.1618 207.626C52.4425 207.534 52.7392 207.501 53.0332 207.529C53.3109 207.497 53.5921 207.524 53.859 207.607C54.1258 207.69 54.3725 207.828 54.5833 208.012C54.7941 208.196 54.9644 208.422 55.0833 208.675C55.2022 208.929 55.2672 209.204 55.2741 209.484C55.2741 210.803 54.0831 211.479 52.8843 212.123C53.472 212.814 54.2633 213.615 55.2349 214.573C55.6398 213.986 55.9738 213.354 56.23 212.688L56.9666 213.254C56.6838 213.942 56.3181 214.594 55.8774 215.193L57.5464 216.842L56.9666 217.455L55.3525 215.845ZM54.7335 215.225C53.6678 214.157 52.7981 213.269 52.1478 212.508C51.1918 213.034 50.3926 213.615 50.3926 214.589C50.3963 214.844 50.4519 215.097 50.556 215.33C50.6602 215.564 50.8107 215.774 50.9983 215.947C51.186 216.12 51.4069 216.254 51.6476 216.339C51.8883 216.424 52.1438 216.459 52.3985 216.442C52.8513 216.415 53.2933 216.293 53.6957 216.083C54.0981 215.873 54.4517 215.581 54.7335 215.225ZM52.3828 211.542C53.4484 210.984 54.373 210.458 54.373 209.484C54.3732 209.313 54.337 209.143 54.2668 208.987C54.1966 208.83 54.094 208.691 53.9658 208.577C53.8376 208.463 53.6867 208.378 53.5232 208.328C53.3597 208.277 53.1873 208.262 53.0175 208.283C52.8318 208.265 52.6446 208.287 52.4675 208.345C52.2905 208.404 52.1273 208.498 51.9883 208.623C51.8494 208.747 51.7375 208.899 51.6598 209.069C51.582 209.239 51.5401 209.423 51.5366 209.61C51.61 210.342 51.9178 211.031 52.4142 211.573L52.3828 211.542Z" fill="#D1D1D1"/>
<path d="M69.1647 217.274V213.01H63.3351V217.274H62.2225V207.576H63.3351V211.95H69.1647V207.576H70.2695V217.274H69.1647Z" fill="#D1D1D1"/>
<path d="M77.4275 216.151C77.1117 216.548 76.7043 216.863 76.2403 217.069C75.7762 217.274 75.2695 217.363 74.7635 217.329C74.4521 217.358 74.138 217.322 73.841 217.224C73.5441 217.126 73.2707 216.967 73.0381 216.757C72.8055 216.548 72.6187 216.292 72.4895 216.007C72.3603 215.721 72.2915 215.412 72.2875 215.098C72.2875 213.818 73.2982 213.017 75.0142 213.01H77.3648V212.578C77.3648 211.51 76.6988 210.874 75.4138 210.874C74.5753 210.901 73.7665 211.192 73.1024 211.706L72.6479 210.921C73.5028 210.274 74.5468 209.929 75.6175 209.939C77.4197 209.939 78.4148 210.889 78.4305 212.46V217.282H77.3727L77.4275 216.151ZM77.4275 214.753V213.881H75.1552C73.9408 213.881 73.3061 214.25 73.3061 215.051C73.3061 215.852 73.9564 216.386 74.975 216.386C75.5071 216.433 76.039 216.296 76.4834 216C76.9277 215.703 77.2579 215.263 77.4197 214.753H77.4275Z" fill="#D1D1D1"/>
<path d="M81.7776 217.55C81.7776 219.23 80.8217 220.015 79.6855 220C79.1538 220 78.6365 219.827 78.2125 219.505L78.5651 218.641C78.8667 218.874 79.2342 219.006 79.615 219.018C80.2497 219.018 80.665 218.602 80.665 217.715V210.003H81.7463L81.7776 217.55ZM81.9735 207.883C81.9643 208.026 81.9135 208.164 81.8272 208.279C81.7409 208.394 81.6229 208.482 81.4878 208.53C81.3526 208.579 81.2063 208.587 81.0666 208.553C80.927 208.52 80.8002 208.446 80.7018 208.341C80.6035 208.236 80.5378 208.105 80.513 207.963C80.4882 207.821 80.5053 207.675 80.5621 207.543C80.619 207.411 80.7132 207.299 80.8331 207.219C80.953 207.14 81.0934 207.098 81.237 207.097C81.3381 207.096 81.4384 207.116 81.5316 207.155C81.6247 207.195 81.7085 207.254 81.7778 207.328C81.8471 207.401 81.9003 207.489 81.934 207.584C81.9677 207.68 81.9811 207.782 81.9735 207.883Z" fill="#D1D1D1"/>
<path d="M85.7563 217.55C85.7563 219.23 84.8004 220.015 83.6721 220C83.138 220 82.6182 219.827 82.1912 219.505L82.5751 218.618C82.8768 218.851 83.2442 218.983 83.6251 218.995C84.2676 218.995 84.675 218.578 84.675 217.691V210.003H85.7563V217.55ZM85.9522 207.883C85.9431 208.026 85.8922 208.164 85.8059 208.279C85.7196 208.394 85.6016 208.482 85.4665 208.53C85.3314 208.579 85.185 208.587 85.0453 208.553C84.9057 208.52 84.7789 208.446 84.6805 208.341C84.5822 208.236 84.5166 208.105 84.4918 207.963C84.4669 207.821 84.484 207.675 84.5409 207.543C84.5977 207.411 84.6919 207.299 84.8118 207.219C84.9317 207.14 85.0721 207.098 85.2157 207.097C85.3168 207.096 85.4172 207.116 85.5103 207.155C85.6034 207.195 85.6873 207.254 85.7565 207.328C85.8258 207.401 85.879 207.489 85.9127 207.584C85.9464 207.68 85.9598 207.782 85.9522 207.883Z" fill="#D1D1D1"/>
<path d="M97.6094 208.432L97.1393 209.476C96.3467 208.955 95.4231 208.669 94.4752 208.652C93.2294 208.652 92.4145 209.123 92.4145 209.94C92.4145 212.437 97.8602 211.133 97.8445 214.652C97.8445 216.277 96.4184 217.314 94.3499 217.314C92.9723 217.303 91.6493 216.773 90.6437 215.829L91.1373 214.832C91.9997 215.681 93.1498 216.171 94.3577 216.206C95.7603 216.206 96.63 215.641 96.63 214.706C96.63 212.162 91.1922 213.521 91.1922 210.042C91.1922 208.518 92.5321 207.529 94.5379 207.529C95.6267 207.53 96.6924 207.844 97.6094 208.432Z" fill="#D1D1D1"/>
<path d="M106.129 214.045H100.19C100.24 214.704 100.543 215.318 101.036 215.757C101.528 216.197 102.171 216.427 102.83 216.401C103.248 216.413 103.663 216.338 104.05 216.181C104.437 216.025 104.787 215.789 105.079 215.49L105.675 216.126C105.301 216.527 104.847 216.844 104.341 217.054C103.836 217.264 103.291 217.362 102.744 217.343C101.798 217.3 100.905 216.892 100.25 216.205C99.5963 215.519 99.2312 214.606 99.2312 213.656C99.2312 212.707 99.5963 211.794 100.25 211.107C100.905 210.421 101.798 210.013 102.744 209.969C105.079 209.93 106.239 211.571 106.129 214.045ZM105.204 213.142C105.206 212.828 105.143 212.517 105.019 212.228C104.896 211.94 104.714 211.68 104.485 211.465C104.256 211.251 103.985 211.086 103.69 210.981C103.394 210.876 103.08 210.834 102.768 210.857C102.125 210.822 101.494 211.043 101.012 211.47C100.529 211.898 100.234 212.498 100.19 213.142H105.204Z" fill="#D1D1D1"/>
<path d="M108.933 211.572C109.148 211.061 109.514 210.627 109.982 210.33C110.45 210.032 110.997 209.885 111.55 209.908V210.999C111.222 210.972 110.892 211.013 110.58 211.118C110.268 211.224 109.981 211.392 109.736 211.612C109.491 211.833 109.293 212.101 109.155 212.401C109.017 212.7 108.942 213.025 108.933 213.355V217.234H107.86V210.002H108.933V211.572Z" fill="#D1D1D1"/>
<path d="M115.075 217.274L112.191 209.971H113.335L115.686 216.151L117.989 209.971H119.079L116.219 217.274H115.075Z" fill="#D1D1D1"/>
<path d="M121.532 207.883C121.517 208.018 121.463 208.146 121.377 208.252C121.291 208.357 121.176 208.435 121.047 208.477C120.918 208.519 120.779 208.522 120.648 208.486C120.516 208.451 120.398 208.378 120.307 208.277C120.216 208.176 120.157 208.05 120.135 207.916C120.114 207.781 120.131 207.643 120.186 207.519C120.241 207.394 120.331 207.288 120.445 207.213C120.558 207.138 120.691 207.098 120.827 207.097C120.926 207.098 121.024 207.119 121.115 207.16C121.205 207.201 121.286 207.26 121.353 207.334C121.419 207.408 121.469 207.495 121.5 207.589C121.531 207.684 121.542 207.784 121.532 207.883ZM120.302 217.306V210.003H121.368V217.306H120.302Z" fill="#D1D1D1"/>
<path d="M129.542 211.022L128.946 211.808C128.361 211.254 127.581 210.952 126.776 210.967C126.063 210.967 125.38 211.251 124.876 211.756C124.372 212.261 124.089 212.947 124.089 213.661C124.089 214.375 124.372 215.06 124.876 215.566C125.38 216.071 126.063 216.354 126.776 216.354C127.197 216.376 127.618 216.302 128.007 216.139C128.396 215.976 128.744 215.728 129.025 215.412L129.652 216.08C129.29 216.495 128.839 216.824 128.333 217.041C127.827 217.259 127.279 217.359 126.729 217.336C125.783 217.292 124.89 216.885 124.235 216.198C123.581 215.511 123.216 214.599 123.216 213.649C123.216 212.7 123.581 211.787 124.235 211.1C124.89 210.414 125.783 210.006 126.729 209.962C127.245 209.937 127.761 210.017 128.245 210.2C128.729 210.382 129.17 210.662 129.542 211.022Z" fill="#D1D1D1"/>
<path d="M137.627 214.047H131.679C131.732 214.706 132.036 215.32 132.53 215.759C133.024 216.199 133.668 216.429 134.328 216.403C134.739 216.411 135.148 216.336 135.529 216.18C135.911 216.025 136.256 215.794 136.545 215.5L137.141 216.136C136.768 216.537 136.313 216.853 135.807 217.063C135.302 217.273 134.757 217.372 134.21 217.353C133.264 217.309 132.371 216.902 131.717 216.215C131.063 215.528 130.697 214.615 130.697 213.666C130.697 212.717 131.063 211.804 131.717 211.117C132.371 210.43 133.264 210.023 134.21 209.979C136.545 209.932 137.736 211.573 137.627 214.047ZM136.663 213.144C136.665 212.83 136.602 212.519 136.478 212.23C136.354 211.942 136.172 211.682 135.943 211.467C135.714 211.252 135.443 211.088 135.148 210.983C134.852 210.878 134.539 210.836 134.226 210.859C133.589 210.835 132.967 211.059 132.492 211.486C132.017 211.912 131.726 212.506 131.679 213.144H136.663Z" fill="#D1D1D1"/>
<path d="M143.761 210.591L143.346 211.454C142.755 211.078 142.072 210.872 141.371 210.857C140.588 210.857 139.938 211.148 139.938 211.831C139.938 213.449 143.996 212.617 143.996 215.239C143.996 216.676 142.727 217.313 141.324 217.313C140.3 217.331 139.306 216.967 138.535 216.292L138.95 215.506C139.619 216.098 140.479 216.427 141.371 216.433C142.225 216.433 142.938 216.111 142.938 215.396C142.985 213.63 138.903 214.533 138.919 211.941C138.919 210.543 140.118 209.962 141.45 209.962C142.264 209.945 143.067 210.163 143.761 210.591Z" fill="#D1D1D1"/>
<path d="M98.1547 193.262L93.5161 183.635C93.4725 183.491 93.4147 183.351 93.3438 183.219C93.2732 183.007 92.9833 182.347 92.4505 181.224C91.9177 180.101 91.6121 179.316 91.3457 178.633H91.2517C91.2517 178.633 86.762 178.633 85.6259 178.515C84.4897 178.397 83.6983 178.397 83.0793 178.397H82.3898V178.75C83.4751 178.782 84.5335 179.096 85.4613 179.661C86.3537 180.239 87.0674 181.055 87.522 182.017L80.9716 194.786C79.7911 197.095 78.4852 198.618 77.0539 199.356V199.718C77.4315 199.703 77.8081 199.669 78.1822 199.615C79.0127 199.529 79.7493 199.482 80.2742 199.482C80.9735 199.488 81.6719 199.533 82.3663 199.615C82.7507 199.671 83.1378 199.705 83.5259 199.718V199.364C83.0531 199.242 82.634 198.966 82.3347 198.58C82.0355 198.193 81.8729 197.718 81.8727 197.228C81.8734 196.635 82.0158 196.051 82.2879 195.524C82.4682 195.155 82.57 194.967 82.5779 194.951L82.6797 194.7L84.5524 191.017H91.9961L93.7512 194.7C94.2772 195.637 94.6102 196.67 94.7307 197.739C94.7455 198.153 94.5966 198.556 94.3163 198.86C94.036 199.165 93.647 199.346 93.2341 199.364V199.718C95.0206 199.587 96.5537 199.508 97.8335 199.482H99.4006C100.247 199.482 101.555 199.561 103.318 199.718V199.364C101.485 198.642 99.7689 196.616 98.1547 193.262ZM85.2811 189.509L88.4153 183.501L91.2752 189.509H85.2811ZM35.2439 171.133C33.4156 170.416 31.6918 168.387 30.0725 165.047L25.4417 155.412C25.3923 155.271 25.3321 155.134 25.2615 155.003C25.1988 154.791 24.9011 154.124 24.3761 153.001C23.8511 151.878 23.5299 151.1 23.2713 150.409H23.1694C23.1694 150.409 18.6797 150.409 17.5514 150.291C16.4231 150.174 15.6239 150.174 15.0049 150.174H14.3154V150.527C15.3985 150.557 16.4548 150.871 17.379 151.438C18.2737 152.013 18.988 152.83 19.4398 153.794L12.8893 166.563C11.7062 168.871 10.3976 170.395 8.97159 171.133V171.486C9.15181 171.486 9.52792 171.486 10.0921 171.392C10.7863 171.307 11.4847 171.26 12.1841 171.251C12.8837 171.256 13.5823 171.303 14.2762 171.392C14.8325 171.455 15.2165 171.486 15.4437 171.486V171.133C14.97 171.011 14.55 170.736 14.2494 170.349C13.9488 169.963 13.7846 169.487 13.7826 168.997C13.786 168.407 13.9283 167.826 14.1979 167.301C14.3859 166.932 14.4799 166.735 14.4956 166.728L14.5896 166.468L16.4701 162.793H23.906L25.6611 166.468C26.1926 167.407 26.5284 168.443 26.6484 169.515C26.6611 169.929 26.5102 170.332 26.2284 170.635C25.9467 170.938 25.5569 171.117 25.144 171.133V171.486C26.9383 171.361 28.4662 171.282 29.7434 171.251H31.3105C32.1489 171.251 33.4652 171.329 35.2282 171.486L35.2439 171.133ZM17.2223 161.309L20.3565 155.294L23.2165 161.309H17.2223ZM92.4427 171.518C92.6307 171.518 93.0068 171.486 93.571 171.424C94.2653 171.338 94.9637 171.291 95.6631 171.282C96.3626 171.288 97.0612 171.335 97.7551 171.424C98.3036 171.486 98.6954 171.518 98.9148 171.518V171.164C98.4419 171.043 98.0229 170.767 97.7236 170.38C97.4243 169.993 97.2617 169.518 97.2615 169.028C97.2613 168.438 97.4038 167.856 97.6768 167.332C97.857 166.963 97.9589 166.767 97.9667 166.759L98.0686 166.5L99.9412 162.825H107.377L109.132 166.5C109.664 167.438 110 168.475 110.119 169.547C110.132 169.959 109.982 170.361 109.702 170.663C109.422 170.966 109.034 171.146 108.623 171.164V171.518C110.409 171.392 111.943 171.314 113.222 171.282H114.789C115.63 171.282 116.936 171.361 118.707 171.518V171.164C116.874 170.447 115.15 168.419 113.536 165.078L108.897 155.443C108.854 155.301 108.796 155.165 108.725 155.035C108.657 154.825 108.359 154.158 107.832 153.032C107.361 151.985 106.993 151.121 106.727 150.441H106.633C106.633 150.441 102.135 150.441 101.007 150.323C99.8786 150.205 99.0794 150.205 98.4604 150.205H97.7708V150.558C98.8561 150.59 99.9145 150.904 100.842 151.469C101.733 152.049 102.446 152.865 102.903 153.825L96.3526 166.594C95.1721 168.903 93.8662 170.426 92.4349 171.164L92.4427 171.518ZM103.812 155.325L106.672 161.34H100.709L103.812 155.325ZM38.8952 153.755C37.4367 152.395 35.746 151.31 33.904 150.551V150.197L37.4378 150.433H41.9902L58.5857 164.568V156.362C58.6115 155.308 58.5195 154.254 58.3115 153.221C58.1276 152.531 57.7331 151.916 57.1831 151.462C56.5496 150.976 55.8022 150.663 55.0127 150.551V150.197L55.7023 150.26C57.4261 150.378 58.5935 150.433 59.2125 150.433C59.8315 150.433 61.0617 150.362 63.0911 150.213H63.2556L66.6249 150.433H71.1773L87.7728 164.568V156.362C87.8008 155.307 87.7062 154.253 87.4907 153.221C87.3129 152.53 86.9205 151.914 86.3702 151.462C85.7367 150.976 84.9893 150.663 84.1998 150.551V150.197L84.8893 150.26C86.6131 150.378 87.7806 150.433 88.3996 150.433C89.0186 150.433 90.3114 150.354 92.4427 150.197V150.551C91.7697 150.64 91.1418 150.939 90.6484 151.407C90.1528 151.847 89.7961 152.423 89.6219 153.064C89.4138 153.991 89.3217 154.94 89.3477 155.891V171.51H88.9559L71.0833 156.268V165.463C71.0833 167.466 71.334 168.856 71.8668 169.633C72.1474 170.037 72.5064 170.38 72.9224 170.642C73.3384 170.904 73.8029 171.079 74.288 171.157V171.51C72.3082 171.353 70.9605 171.274 70.2449 171.274C69.4613 171.274 68.2311 171.353 66.617 171.51V171.157C67.0951 171.085 67.5509 170.907 67.951 170.635C68.3511 170.363 68.6851 170.005 68.9285 169.586C69.4288 168.221 69.637 166.765 69.5397 165.314V154.995L68.1215 153.786C66.6783 152.457 65.0125 151.394 63.2008 150.645C62.5644 150.743 61.972 151.03 61.5005 151.469C61.0077 151.912 60.6516 152.487 60.474 153.126C60.2659 154.054 60.1738 155.003 60.1998 155.953V171.573H59.761L41.8883 156.33V165.526C41.8883 167.529 42.1391 168.919 42.6719 169.696C42.954 170.1 43.3144 170.444 43.7318 170.705C44.1491 170.967 44.6147 171.142 45.1009 171.219V171.573C43.1107 171.416 41.763 171.337 41.0499 171.337C40.3369 171.337 39.0441 171.416 37.4221 171.573V171.219C37.9076 171.155 38.372 170.98 38.7795 170.708C39.1869 170.435 39.5267 170.073 39.7728 169.649C40.273 168.284 40.4813 166.828 40.3839 165.377V155.058L38.8952 153.755ZM16.2507 181.546C16.2507 182.504 16.3134 183.007 16.3134 183.046V183.564H15.8825C15.5168 181.193 14.399 180.007 12.5289 180.007H8.69736C8.30392 179.999 7.912 180.058 7.53772 180.18C7.34298 181.561 7.25653 182.955 7.27914 184.349V188.449H10.7346C11.847 188.518 12.9602 188.327 13.9863 187.891C14.3347 187.692 14.633 187.416 14.8585 187.084C15.084 186.752 15.2305 186.373 15.287 185.975H15.7258C15.6317 187.394 15.5847 188.375 15.5847 188.92C15.5847 189.25 15.5847 189.807 15.6474 190.6C15.7101 191.394 15.7258 191.888 15.7258 192.218V192.878H15.287C15.2243 190.789 14.1117 189.737 11.9569 189.737H7.25564V194.323C7.25564 197.301 8.16455 198.982 9.98237 199.364V199.718C8.1097 199.561 6.93439 199.482 6.44859 199.482H4.13712C2.98531 199.482 1.59843 199.561 0 199.718V199.364C0.427323 199.243 0.823147 199.029 1.16004 198.739C1.49693 198.449 1.76684 198.089 1.95103 197.684C2.41984 196.379 2.61976 194.992 2.53869 193.608V183.831C2.53869 182.041 2.30363 180.792 1.83351 180.077C1.41097 179.424 0.754901 178.958 0 178.774V178.397C1.39993 178.512 2.77897 178.591 4.13712 178.633H10.5544C11.9752 178.633 13.8479 178.554 16.1724 178.397C16.1724 178.742 16.1724 179.182 16.1724 179.74C16.188 180.085 16.2037 180.651 16.2429 181.522L16.2507 181.546ZM24.6268 178.656C26.0772 178.666 27.5268 178.587 28.9677 178.421V178.774C28.1823 178.925 27.4875 179.379 27.0323 180.038C26.5073 180.769 26.2488 182.261 26.2488 184.53V193.954C26.2488 195.987 26.523 197.346 27.0793 198.045C27.5471 198.686 28.2141 199.153 28.9755 199.372V199.718C27.5348 199.549 26.0851 199.47 24.6347 199.482H23.1538C22.2083 199.482 20.7666 199.561 18.8286 199.718V199.364C19.2909 199.263 19.7231 199.055 20.0905 198.757C20.4579 198.458 20.7503 198.077 20.9442 197.644C21.4291 196.124 21.6283 194.526 21.5318 192.933V184.075C21.609 182.786 21.4003 181.496 20.9207 180.297C20.7123 179.895 20.4159 179.544 20.0537 179.272C19.6915 179.001 19.2727 178.814 18.8286 178.727V178.373C20.4323 178.504 21.874 178.583 23.1538 178.609L24.6268 178.656ZM124.466 178.515L126.699 178.373V178.727C126.034 178.842 125.424 179.17 124.96 179.661C124.491 180.167 124.175 180.796 124.051 181.475C123.883 182.753 123.817 184.043 123.855 185.331V194.032C123.855 197.299 124.803 199.066 126.699 199.333V199.718C124.96 199.561 123.839 199.482 123.338 199.482H118.942C119.098 198.856 119.172 198.211 119.162 197.566C117.127 198.959 114.722 199.708 112.259 199.718C110.389 199.718 108.526 199.507 106.703 199.089C105.91 198.938 105.159 198.616 104.501 198.147C103.887 197.731 103.423 197.128 103.177 196.427C102.922 195.374 102.816 194.29 102.864 193.208V183.784C102.939 182.563 102.716 181.342 102.214 180.227C101.994 179.845 101.693 179.517 101.331 179.267C100.969 179.017 100.556 178.851 100.121 178.782V178.428L104.525 178.664H105.904C107.283 178.664 108.808 178.585 110.48 178.428V178.782C109.819 178.873 109.204 179.172 108.725 179.638C108.276 180.062 107.961 180.608 107.816 181.208C107.629 182.138 107.55 183.087 107.581 184.035V192.006C107.529 193.23 107.655 194.455 107.957 195.642C108.234 196.47 108.813 197.163 109.579 197.582C110.546 198.128 111.643 198.399 112.752 198.367C115.069 198.269 117.306 197.49 119.185 196.129V184.585C119.213 183.494 119.139 182.403 118.966 181.326C118.849 180.708 118.555 180.138 118.119 179.685C117.649 179.243 117.071 178.934 116.443 178.79V178.436H116.991C117.281 178.436 117.595 178.475 117.924 178.515C118.997 178.578 119.969 178.625 120.823 178.648H122.241C123.228 178.609 123.957 178.578 124.466 178.515ZM78.6601 184.373C77.8866 182.874 76.7118 181.62 75.2674 180.753C72.8655 179.29 70.1092 178.516 67.2987 178.515C66.8913 178.515 66.1391 178.554 65.05 178.617C64.3239 178.674 63.0545 178.722 61.2419 178.758H59.8394C58.617 178.758 57.1518 178.648 55.4359 178.515V178.876C55.8827 178.977 56.3042 179.169 56.6747 179.439C57.0452 179.709 57.3568 180.052 57.5906 180.447C58.0707 181.604 58.2798 182.855 58.2018 184.106V192.273C58.2018 195.016 57.9981 196.822 57.5906 197.692C57.5129 197.847 57.4238 197.997 57.3242 198.139C55.7571 198.139 54.8482 197.927 52.3487 195.383C50.6641 193.687 48.0784 190.969 47.2478 190.404C46.3814 189.843 45.3971 189.491 44.3722 189.375C45.6229 189.178 46.8477 188.841 48.0235 188.37C50.1547 187.522 51.2204 186.014 51.2204 183.941C51.2204 181.868 50.1156 180.282 47.8198 179.386C46.1079 178.756 44.2997 178.429 42.476 178.421C41.8335 178.421 40.9951 178.468 39.9687 178.562C39.0754 178.625 38.237 178.656 37.4456 178.656H36.0039C33.8257 178.593 32.3134 178.515 31.4672 178.421V178.774C33.4208 179.182 34.395 180.823 34.3898 183.698V193.859C34.3898 195.953 34.113 197.377 33.5593 198.131C33.3199 198.477 33.0092 198.768 32.6483 198.983C32.2875 199.198 31.8847 199.334 31.4672 199.38V199.718C32.1794 199.724 32.8912 199.684 33.5984 199.6C34.3115 199.521 34.8286 199.482 35.1655 199.482H38.0255C39.0519 199.482 40.3761 199.561 41.9432 199.718V199.364C40.047 199.089 39.0989 197.37 39.0989 194.221V189.509C39.963 189.806 40.7709 190.246 41.4887 190.812C42.7299 191.884 43.9024 193.032 44.999 194.252C46.0725 195.414 47.1459 196.781 47.9138 197.511C48.5105 198.098 49.1467 198.644 49.8178 199.144C50.7964 199.802 51.9543 200.14 53.1322 200.11C53.5162 200.11 55.4829 199.78 55.4829 199.78C57.4887 199.615 58.954 199.537 59.8864 199.537H62.4878C62.6207 199.525 62.7544 199.525 62.8874 199.537C64.5406 199.678 66.0215 199.757 67.3457 199.757C69.9006 199.684 72.412 199.077 74.7189 197.974C76.3193 197.158 77.653 195.9 78.5625 194.348C79.472 192.797 79.9192 191.017 79.8511 189.218C79.8563 187.537 79.4472 185.881 78.6601 184.397V184.373ZM41.6063 188.637C40.7562 188.642 39.9088 188.542 39.0833 188.339V184.051C38.9989 182.773 39.1179 181.49 39.4358 180.25C40.0958 179.835 40.8675 179.635 41.6455 179.677C44.5864 179.677 46.0542 181.122 46.049 184.012C46.049 187.153 44.5681 188.661 41.6063 188.661V188.637ZM72.6582 196.082C71.9265 196.86 71.0344 197.47 70.044 197.869C69.0536 198.268 67.9885 198.446 66.9226 198.39C65.7486 198.408 64.5786 198.249 63.4515 197.919C62.993 195.842 62.8008 193.715 62.8795 191.59V186.768C62.8795 183.211 62.9814 181.13 63.1929 180.541C64.2335 180.055 65.3766 179.831 66.523 179.889C69.2341 179.889 71.287 180.706 72.6817 182.339C74.0764 183.973 74.7738 186.266 74.7738 189.218C74.7738 192.257 74.0686 194.55 72.6582 196.105V196.082ZM144 193.16C143.995 193.927 143.822 194.684 143.495 195.377C143.167 196.07 142.693 196.683 142.104 197.173C141.108 198.083 139.926 198.763 138.641 199.168C137.379 199.606 136.058 199.847 134.723 199.882C133.49 199.841 132.263 199.692 131.056 199.435C130.045 199.212 129.018 199.073 127.984 199.019L127.835 198.862C127.835 198.631 127.835 198.341 127.835 197.99C127.835 197.566 127.788 196.914 127.71 196.027C127.632 195.139 127.6 194.456 127.6 194.056C127.597 193.565 127.626 193.074 127.687 192.587H128.172C128.213 193.402 128.432 194.198 128.812 194.92C129.192 195.642 129.726 196.271 130.374 196.765C131.672 197.83 133.304 198.403 134.981 198.383C136.158 198.436 137.314 198.065 138.241 197.338C138.632 197.046 138.949 196.667 139.168 196.231C139.387 195.795 139.502 195.314 139.502 194.825C139.521 194.354 139.418 193.887 139.204 193.467C138.99 193.048 138.672 192.691 138.28 192.43C136.832 191.595 135.277 190.963 133.657 190.553C132.323 190.168 131.014 189.699 129.739 189.148C128.887 188.759 128.152 188.152 127.608 187.389C127.06 186.661 126.768 185.772 126.778 184.86C126.762 183.734 127.165 182.643 127.906 181.797C128.754 180.766 129.805 179.921 130.993 179.316C132.778 178.515 134.719 178.126 136.674 178.177C138.692 178.221 140.699 178.484 142.66 178.962V179.096L142.707 179.881C142.707 180.274 142.707 180.753 142.707 181.303C142.754 181.978 142.778 182.567 142.778 183.085C142.778 183.423 142.778 183.87 142.731 184.349H142.284C142.309 183.656 142.138 182.969 141.792 182.367C141.446 181.766 140.937 181.275 140.325 180.949C138.911 180.188 137.322 179.812 135.718 179.858C134.481 179.807 133.254 180.103 132.176 180.714C131.78 180.893 131.439 181.177 131.191 181.535C130.942 181.893 130.795 182.312 130.766 182.747C130.76 183.149 130.86 183.544 131.056 183.894C131.251 184.244 131.535 184.537 131.879 184.742C133.31 185.555 134.836 186.185 136.423 186.619C137.928 187.069 139.401 187.617 140.834 188.26C141.731 188.727 142.5 189.407 143.075 190.239C143.676 191.103 143.999 192.131 144 193.184V193.16ZM123.565 171.227L119.342 171.463V171.109C119.97 170.935 120.532 170.577 120.956 170.081C121.38 169.576 121.666 168.97 121.786 168.322C121.95 167.183 122.016 166.032 121.982 164.882V155.788C121.982 153.849 121.732 152.537 121.199 151.862C120.764 151.195 120.086 150.725 119.31 150.551V150.197C120.094 150.307 121.528 150.386 123.534 150.433H124.991C126.151 150.433 127.6 150.354 129.348 150.197V150.551C128.892 150.651 128.464 150.849 128.093 151.133C127.722 151.416 127.418 151.778 127.201 152.192C126.72 153.529 126.517 154.951 126.605 156.37V159.668H136.627V155.891C136.699 154.611 136.477 153.332 135.976 152.153C135.757 151.759 135.457 151.416 135.097 151.145C134.736 150.874 134.323 150.683 133.884 150.582V150.229C135.326 150.387 136.775 150.465 138.225 150.464H139.691C141.12 150.464 142.548 150.385 143.969 150.229V150.582C142.302 151.064 141.435 152.66 141.367 155.372L141.305 166.186C141.305 169.138 142.193 170.806 143.969 171.188V171.541C141.472 171.384 140.046 171.306 139.691 171.306H138.225C137.645 171.306 136.204 171.4 133.884 171.541V171.188C134.287 171.101 134.669 170.936 135.007 170.702C135.346 170.467 135.636 170.168 135.859 169.822C136.376 169.083 136.643 167.662 136.643 165.55V161.38H126.637V166.186C126.637 168.047 126.903 169.327 127.42 169.939C127.914 170.561 128.6 171.001 129.371 171.188V171.541C127.741 171.416 126.292 171.337 125.015 171.306L123.565 171.227ZM0.697355 176.025C0.483918 176.166 0.261431 176.292 0.0313485 176.402V175.059C0.419651 174.742 0.788571 174.401 1.13614 174.039C2.18042 172.964 2.97037 171.668 3.44761 170.246C3.92528 168.521 4.14445 166.734 4.09795 164.945V154.823C4.16995 153.791 3.98693 152.758 3.56513 151.815C3.32324 151.482 3.01663 151.202 2.6638 150.992C2.31097 150.781 1.91925 150.645 1.51225 150.59V150.174C3.37709 150.305 4.7718 150.383 5.69638 150.409H7.15377C8.2194 150.409 9.63762 150.307 11.4163 150.174V150.527C11.0049 150.563 10.6057 150.686 10.2451 150.887C9.8845 151.089 9.57064 151.365 9.3242 151.697C8.89515 152.574 8.70332 153.549 8.76788 154.524V163.853C8.72146 165.141 8.82136 166.429 9.06563 167.693C9.21662 168.395 9.55208 169.043 10.0372 169.57C9.30749 169.533 8.57877 169.662 7.90598 169.947C7.20773 170.469 6.5574 171.053 5.96278 171.691C4.35202 173.31 2.58866 174.77 0.697355 176.049V176.025Z" fill="white"/>
</svg>
